<?xml version="1.0" standalone="no"?><!DOCTYPE svg PUBLIC "-//W3C//DTD SVG 1.1//EN" "http://www.w3.org/Graphics/SVG/1.1/DTD/svg11.dtd"><svg t="1589117958474" class="icon" viewBox="0 0 1024 1024" version="1.1" xmlns="http://www.w3.org/2000/svg" p-id="2668" xmlns:xlink="http://www.w3.org/1999/xlink" width="200" height="200"><defs><style type="text/css"></style></defs><path d="M321.568 160A161.344 161.344 0 0 0 160 321.568V702.4A161.344 161.344 0 0 0 321.568 864H702.4A161.216 161.216 0 0 0 864 702.432V321.6A161.344 161.344 0 0 0 702.432 160H321.6z m189.792 64a288 288 0 1 1-0.032 576.032A288 288 0 0 1 511.36 224z m0 32.8A255.392 255.392 0 0 0 256 512.32C256 653.344 370.176 768 511.36 768a255.488 255.488 0 0 0 255.52-255.488c0-141.184-114.464-255.68-255.52-255.68zM618.112 352c8.384-0.576 13.248 4.416 13.248 12.8-0.128 250.752 0.608 227.936-1.472 237.024-4.704 20-19.84 31.168-40.128 34.976-17.792 3.232-32.64 4.128-46.88-7.36a35.808 35.808 0 0 1-2.08-54.08c12.352-11.744 29.856-14.08 55.872-18.784 4.416-0.736 8.224-1.76 11.328-5.44 4.704-5.28 3.264 6.368 3.264-109.44 0-8.224-4-10.496-12.384-9.024-5.888 1.024-135.04 25.152-135.04 25.152-7.36 1.6-9.92 3.776-9.92 12.16 0 170.656 0.768 153.6-1.728 164.896a42.56 42.56 0 0 1-21.888 28.736c-12.16 6.752-34.368 9.76-46.112 7.68-31.456-5.856-42.496-42.176-21.184-63.04 12.352-11.744 29.856-14.112 55.872-18.816 4.416-0.736 8.192-1.76 11.296-5.44 7.36-8.384 1.344-177.376 3.84-187.2a14.272 14.272 0 0 1 5.12-9.376 22.336 22.336 0 0 1 9.856-4c148.48-27.936 166.496-31.424 169.12-31.424z" p-id="2669" fill="#ffffff"></path></svg>