<?xml version="1.0" standalone="no"?><!DOCTYPE svg PUBLIC "-//W3C//DTD SVG 1.1//EN" "http://www.w3.org/Graphics/SVG/1.1/DTD/svg11.dtd"><svg t="1591948516533" class="icon" viewBox="0 0 1024 1024" version="1.1" xmlns="http://www.w3.org/2000/svg" p-id="11643" xmlns:xlink="http://www.w3.org/1999/xlink" width="200" height="200"><defs><style type="text/css"></style></defs><path d="M890.311111 913.066667h-739.555555c-39.822222 0-56.888889-11.377778-56.888889-56.888889v-426.666667c0-39.822222 17.066667-56.888889 56.888889-56.888889h739.555555c39.822222 0 56.888889 17.066667 56.888889 56.888889v426.666667c0 34.133333-14.222222 59.733333-56.888889 56.888889z m-711.111111-483.555556h-28.444444c-5.688889 0-5.688889 5.688889 0 0v426.666667h739.555555v-426.666667h-711.111111z m568.888889-28.444444v-85.333334c0-113.777778-122.311111-199.111111-227.555556-199.111111-113.777778 0-199.111111 93.866667-199.111111 199.111111v85.333334h-56.888889v-85.333334c0-145.066667 116.622222-253.155556 256-256 142.222222-2.844444 284.444444 110.933333 284.444445 256v85.333334h-56.888889z" fill="#292929" p-id="11644"></path></svg>