<?xml version="1.0" standalone="no"?><!DOCTYPE svg PUBLIC "-//W3C//DTD SVG 1.1//EN" "http://www.w3.org/Graphics/SVG/1.1/DTD/svg11.dtd"><svg t="1589257622313" class="icon" viewBox="0 0 1024 1024" version="1.1" xmlns="http://www.w3.org/2000/svg" p-id="2834" data-spm-anchor-id="a313x.7781069.0.i4" xmlns:xlink="http://www.w3.org/1999/xlink" width="200" height="200"><defs><style type="text/css"></style></defs><path d="M501.456 553.6a260.8 260.8 0 1 1 260.8-260.8 261.232 261.232 0 0 1-260.8 260.8z m0-446.992a186.928 186.928 0 1 0 186.928 186.928A187.2 187.2 0 0 0 501.456 106.624z" p-id="2835" data-spm-anchor-id="a313x.7781069.0.i2" class="selected" fill="#ffffff"></path><path d="M924.8 992a35.728 35.728 0 0 1-35.2-36.944c0-182.48-169.488-330.992-377.6-330.992S134.4 772.592 134.4 954.992a35.2 35.2 0 1 1-70.4 0c0-223.12 201.136-404.8 448-404.8s448 181.744 448 404.8A35.728 35.728 0 0 1 924.8 992z" p-id="2836" data-spm-anchor-id="a313x.7781069.0.i3" fill="#ffffff" class="selected"></path></svg>