<?xml version="1.0" standalone="no"?><!DOCTYPE svg PUBLIC "-//W3C//DTD SVG 1.1//EN" "http://www.w3.org/Graphics/SVG/1.1/DTD/svg11.dtd"><svg t="1589117888832" class="icon" viewBox="0 0 1024 1024" version="1.1" xmlns="http://www.w3.org/2000/svg" p-id="1739" xmlns:xlink="http://www.w3.org/1999/xlink" width="200" height="200"><defs><style type="text/css"></style></defs><path d="M480 631.04V96a32 32 0 0 1 64 0v535.04l265.216-269.44a32 32 0 1 1 45.568 44.8L544 722.496a44.928 44.928 0 0 1-63.872 0L169.216 406.4a32 32 0 1 1 45.568-44.928L480 631.104z m384 232.96V640a32 32 0 1 1 64 0v243.2a44.8 44.8 0 0 1-44.8 44.8H140.8a44.8 44.8 0 0 1-44.8-44.8V640a32 32 0 0 1 64 0v224h704z" p-id="1740" fill="#ffffff"></path></svg>